<?xml version="1.0" encoding="UTF-8"?>
<svg xmlns="http://www.w3.org/2000/svg" width="1664" height="561" viewBox="0 0 1664 561" role="img" aria-label="grammar-coverage">
  <title>grammar-coverage</title>
  <desc>Kvísl layouter prototype preview</desc>
  <rect width="100%" height="100%" fill="#ffffff"/>
  <g id="boundaries"><rect x="52" y="202" width="808" height="156.25" rx="14" fill="#f8fafc" stroke="#7b8794" stroke-width="2"/><rect x="944" y="52" width="340" height="456.25" rx="14" fill="#f8fafc" stroke="#7b8794" stroke-width="2"/><rect x="966" y="74" width="280" height="412.25" rx="14" fill="#f8fafc" stroke="#7b8794" stroke-width="2"/></g>
  <g id="corridor-dividers"></g>
  <g id="lines"><g data-line="$line-1"><polyline points="294,294.25 338,294.25" fill="none" stroke="#2563eb" stroke-width="2" stroke-linejoin="round" stroke-linecap="round"/><path d="M 326 300.25 L 338 294.25 L 326 288.25" fill="none" stroke="#2563eb" stroke-width="2" stroke-linejoin="round"/></g><g data-line="$line-2"><polyline points="558,301.25 602,301.25" fill="none" stroke="#2563eb" stroke-width="2" stroke-linejoin="round" stroke-linecap="round"/><path d="M 590 307.25 L 602 301.25 L 590 295.25" fill="none" stroke="#2563eb" stroke-width="2" stroke-linejoin="round"/></g><g data-line="$line-3"><polyline points="1098,208.25 1098,252.25" fill="none" stroke="#2563eb" stroke-width="2" stroke-linejoin="round" stroke-linecap="round"/><path d="M 1092 240.25 L 1098 252.25 L 1104 240.25" fill="none" stroke="#2563eb" stroke-width="2" stroke-linejoin="round"/></g><g data-line="$line-4"><polyline points="1098,336.25 1098,380.25" fill="none" stroke="#2563eb" stroke-width="2" stroke-linejoin="round" stroke-linecap="round"/><path d="M 1092 368.25 L 1098 380.25 L 1104 368.25" fill="none" stroke="#2563eb" stroke-width="2" stroke-linejoin="round"/></g><g data-line="probe-upright"><polyline points="1392,233.25 1380,233.25 1380,114 582,114 582,280.25 558,280.25" fill="none" stroke="#6b7280" stroke-width="2" stroke-linejoin="round" stroke-linecap="round" stroke-dasharray="10 7"/><path d="M 570 274.25 L 558 280.25 L 570 286.25" fill="none" stroke="#6b7280" stroke-width="2" stroke-linejoin="round"/></g><g data-line="probe-rotated"><polyline points="1392,279.375 1208,279.375" fill="none" stroke="#6b7280" stroke-width="2" stroke-linejoin="round" stroke-linecap="round" stroke-dasharray="10 7"/><path d="M 1220 273.375 L 1208 279.375 L 1220 285.375" fill="none" stroke="#6b7280" stroke-width="2" stroke-linejoin="round"/></g><g data-line="audit-upright"><polyline points="822,295 902,295 902,488.25 1344,488.25 1344,327 1392,327" fill="none" stroke="#2563eb" stroke-width="2" stroke-linejoin="round" stroke-linecap="round"/><path d="M 1380 333 L 1392 327 L 1380 321" fill="none" stroke="#2563eb" stroke-width="2" stroke-linejoin="round"/></g><g data-line="audit-rotated"><polyline points="1098,464.25 1098,476.25 1332,476.25 1332,295 1392,295" fill="none" stroke="#2563eb" stroke-width="2" stroke-linejoin="round" stroke-linecap="round"/><path d="M 1380 301 L 1392 295 L 1380 289" fill="none" stroke="#2563eb" stroke-width="2" stroke-linejoin="round"/></g></g>
  <g id="objects"><rect x="74" y="252.25" width="220" height="84" rx="14" fill="#ffffff" stroke="#172033" stroke-width="2"/><rect x="338" y="252.25" width="220" height="84" rx="14" fill="#ffffff" stroke="#172033" stroke-width="2"/><rect x="602" y="252.25" width="220" height="84" rx="14" fill="#ffffff" stroke="#172033" stroke-width="2"/><rect x="988" y="124.25" width="220" height="84" rx="14" fill="#ffffff" stroke="#172033" stroke-width="2"/><rect x="988" y="252.25" width="220" height="84" rx="14" fill="#ffffff" stroke="#172033" stroke-width="2"/><rect x="988" y="380.25" width="220" height="84" rx="14" fill="#ffffff" stroke="#172033" stroke-width="2"/><rect x="1392" y="202" width="220" height="156.25" rx="14" fill="#ffffff" stroke="#172033" stroke-width="2"/></g>
  <g id="ports"></g>
  <g id="text"><text x="65" y="224" text-anchor="start" fill="#172033" font-family="ui-rounded, 'Comic Sans MS', sans-serif" font-size="15" font-weight="700">Pipeline</text><text x="184" y="299.125" text-anchor="middle" fill="#172033" font-family="ui-rounded, 'Comic Sans MS', sans-serif" font-size="15" font-weight="700">Ingest</text><text x="448" y="299.125" text-anchor="middle" fill="#172033" font-family="ui-rounded, 'Comic Sans MS', sans-serif" font-size="15" font-weight="700">Transform</text><text x="712" y="299.125" text-anchor="middle" fill="#172033" font-family="ui-rounded, 'Comic Sans MS', sans-serif" font-size="15" font-weight="700">Publish</text><text x="979" y="96" text-anchor="start" fill="#172033" font-family="ui-rounded, 'Comic Sans MS', sans-serif" font-size="15" font-weight="700">Pipeline</text><text x="1098" y="171.125" text-anchor="middle" fill="#172033" font-family="ui-rounded, 'Comic Sans MS', sans-serif" font-size="15" font-weight="700">Ingest</text><text x="1098" y="299.125" text-anchor="middle" fill="#172033" font-family="ui-rounded, 'Comic Sans MS', sans-serif" font-size="15" font-weight="700">Transform</text><text x="1098" y="427.125" text-anchor="middle" fill="#172033" font-family="ui-rounded, 'Comic Sans MS', sans-serif" font-size="15" font-weight="700">Publish</text><text x="1502" y="285" text-anchor="middle" fill="#172033" font-family="ui-rounded, 'Comic Sans MS', sans-serif" font-size="15" font-weight="700">Monitor</text></g>
</svg>