<?xml version="1.0" encoding="UTF-8"?>
<svg xmlns="http://www.w3.org/2000/svg" width="1092" height="1100" viewBox="0 0 1092 1100" role="img" aria-label="machine-thought-os">
  <title>machine-thought-os</title>
  <desc>Kvísl layouter prototype preview</desc>
  <rect width="100%" height="100%" fill="#ffffff"/>
  <g id="boundaries"><rect x="52" y="195.8" width="592" height="176.75" rx="14" fill="#e5f2ff" stroke="#cae5fb" stroke-width="2"/><rect x="52" y="430.55" width="987.25" height="617.25" rx="14" fill="#f8fafc" stroke="#4b5563" stroke-width="2"/><rect x="548.75" y="516.8" width="301.25" height="229.24999999999994" rx="14" fill="#f8fafc" stroke="#2a9d45" stroke-width="2" stroke-dasharray="10 7"/></g>
  <g id="corridor-dividers"><path d="M 52 401.55 L 1039.25 401.55" fill="none" stroke="#ea580c" stroke-width="2" stroke-dasharray="10 7"/><text x="1031.25" y="393.55" text-anchor="end" font-family="ui-rounded, sans-serif" font-size="13" fill="#ea580c">SYSTEM-CALL BOUNDARY</text></g>
  <g id="lines"><g data-line="$line-1"><polyline points="242.25,280.3 288.25,280.3" fill="none" stroke="#1674c8" stroke-width="2" stroke-linejoin="round" stroke-linecap="round"/><path d="M 276.25 286.3 L 288.25 280.3 L 276.25 274.3" fill="none" stroke="#1674c8" stroke-width="2" stroke-linejoin="round"/></g><g data-line="$line-2"><polyline points="262.875,561.175 348.5,561.175" fill="none" stroke="#172033" stroke-width="2" stroke-linejoin="round" stroke-linecap="round"/><path d="M 336.5 567.175 L 348.5 561.175 L 336.5 555.175" fill="none" stroke="#172033" stroke-width="2" stroke-linejoin="round"/></g><g data-line="schedule-child-a"><polyline points="516.75,561.175 548.75,561.175 580.75,561.175 580.75,608.15 594.75,608.15" fill="none" stroke="#2a9d45" stroke-width="2" stroke-linejoin="round" stroke-linecap="round"/><path d="M 582.75 614.15 L 594.75 608.15 L 582.75 602.15" fill="none" stroke="#2a9d45" stroke-width="2" stroke-linejoin="round"/></g><g data-line="schedule-child-b"><polyline points="516.75,561.175 548.75,561.175 580.75,561.175 580.75,678.3833333333333 594.75,678.3833333333333" fill="none" stroke="#2a9d45" stroke-width="2" stroke-linejoin="round" stroke-linecap="round"/><path d="M 582.75 684.3833333333333 L 594.75 678.3833333333333 L 582.75 672.3833333333333" fill="none" stroke="#2a9d45" stroke-width="2" stroke-linejoin="round"/></g><g data-line="schedule-child-c"><polyline points="516.75,561.175 548.75,561.175 548.75,795.6333333333333 602.875,795.6333333333333" fill="none" stroke="#2a9d45" stroke-width="2" stroke-linejoin="round" stroke-linecap="round" stroke-dasharray="10 7"/><path d="M 590.875 801.6333333333333 L 602.875 795.6333333333333 L 590.875 789.6333333333333" fill="none" stroke="#2a9d45" stroke-width="2" stroke-linejoin="round"/></g><g data-line="state-child-a"><polyline points="316.5,659.8 316.5,651.8 330.5,651.8 330.5,612.7166666666666 594.75,612.7166666666666" fill="none" stroke="#1674c8" stroke-width="2" stroke-linejoin="round" stroke-linecap="round" stroke-dasharray="10 7"/><path d="M 582.75 618.7166666666666 L 594.75 612.7166666666666 L 582.75 606.7166666666666" fill="none" stroke="#1674c8" stroke-width="2" stroke-linejoin="round"/></g><g data-line="state-child-b"><polyline points="316.5,659.8 330.5,659.8 330.5,701.2166666666666 594.75,701.2166666666666" fill="none" stroke="#1674c8" stroke-width="2" stroke-linejoin="round" stroke-linecap="round" stroke-dasharray="10 7"/><path d="M 582.75 707.2166666666666 L 594.75 701.2166666666666 L 582.75 695.2166666666666" fill="none" stroke="#1674c8" stroke-width="2" stroke-linejoin="round"/></g><g data-line="state-child-c"><polyline points="316.5,659.8 316.5,667.8 316.5,825.2166666666666 602.875,825.2166666666666" fill="none" stroke="#ea580c" stroke-width="2" stroke-linejoin="round" stroke-linecap="round" stroke-dasharray="10 7"/><path d="M 590.875 831.2166666666666 L 602.875 825.2166666666666 L 590.875 819.2166666666666" fill="none" stroke="#ea580c" stroke-width="2" stroke-linejoin="round"/></g><g data-line="join-child-a"><polyline points="680.5,601.3 832,601.3 832,551.05 882,551.05" fill="none" stroke="#7048e8" stroke-width="2" stroke-linejoin="round" stroke-linecap="round"/><path d="M 870 557.05 L 882 551.05 L 870 545.05" fill="none" stroke="#7048e8" stroke-width="2" stroke-linejoin="round"/></g><g data-line="join-child-b"><polyline points="680.5,689.8 832,689.8 832,551.05 882,551.05" fill="none" stroke="#7048e8" stroke-width="2" stroke-linejoin="round" stroke-linecap="round"/><path d="M 870 557.05 L 882 551.05 L 870 545.05" fill="none" stroke="#7048e8" stroke-width="2" stroke-linejoin="round"/></g><g data-line="join-child-c"><polyline points="795.875,810.425 832,810.425 832,551.05 882,551.05" fill="none" stroke="#7048e8" stroke-width="2" stroke-linejoin="round" stroke-linecap="round" stroke-dasharray="10 7"/><path d="M 870 557.05 L 882 551.05 L 870 545.05" fill="none" stroke="#7048e8" stroke-width="2" stroke-linejoin="round"/></g><g data-line="fork-system-call"><polyline points="398.8142857142857,314.55 398.8142857142857,395.55 297.03214285714284,395.55 416.2,395.55 416.2,502.79999999999995 195.25,502.79999999999995 195.25,516.8" fill="none" stroke="#ea580c" stroke-width="2" stroke-linejoin="round" stroke-linecap="round"/><path d="M 189.25 504.79999999999995 L 195.25 516.8 L 201.25 504.79999999999995" fill="none" stroke="#ea580c" stroke-width="2" stroke-linejoin="round"/></g><g data-line="resume-parent"><polyline points="949.625,516.8 949.625,407.55 644,407.55 644,360.55 550.25,360.55 550.25,314.55" fill="none" stroke="#7048e8" stroke-width="2" stroke-linejoin="round" stroke-linecap="round"/><path d="M 556.25 326.55 L 550.25 314.55 L 544.25 326.55" fill="none" stroke="#7048e8" stroke-width="2" stroke-linejoin="round"/></g></g>
  <g id="objects"><rect x="74" y="246.05" width="168.25" height="68.5" rx="14" fill="#cae5fb" stroke="#1674c8" stroke-width="2"/><rect x="288.25" y="246.05" width="168.25" height="68.5" rx="14" fill="#fff4c7" stroke="#ea580c" stroke-width="2"/><rect x="478.5" y="246.05" width="143.5" height="68.5" rx="14" fill="#e3f8e7" stroke="#2a9d45" stroke-width="2"/><rect x="127.625" y="516.8" width="135.25" height="88.74999999999994" rx="14" fill="#cae5fb" stroke="#1674c8" stroke-width="2"/><rect x="348.5" y="516.8" width="168.25" height="88.74999999999994" rx="14" fill="#fff0df" stroke="#ea580c" stroke-width="2"/><rect x="594.75" y="567.05" width="85.75" height="68.5" rx="14" fill="#e3f8e7" stroke="#2a9d45" stroke-width="2"/><rect x="594.75" y="655.55" width="85.75" height="68.5" rx="14" fill="#e3f8e7" stroke="#2a9d45" stroke-width="2"/><rect x="602.875" y="766.05" width="193" height="88.75" rx="14" fill="#fff4c7" stroke="#ea580c" stroke-width="2" stroke-dasharray="10 7"/><rect x="882" y="516.8" width="135.25" height="68.49999999999994" rx="14" fill="#e2d7ff" stroke="#7048e8" stroke-width="2"/><rect x="74" y="625.55" width="242.5" height="68.5" rx="14" fill="#cae5fb" stroke="#1674c8" stroke-width="2"/></g>
  <g id="ports"></g>
  <g id="text"><text x="52" y="84" text-anchor="start" fill="#172033" font-family="ui-rounded, 'Comic Sans MS', sans-serif" font-size="32" font-weight="700">An operating system for machine thought</text><text x="52" y="139.2" text-anchor="start" fill="#172033" font-family="ui-rounded, 'Comic Sans MS', sans-serif" font-size="18" font-weight="450">The thinking model requests parallelism. The inference engine decides</text><text x="52" y="163.5" text-anchor="start" fill="#172033" font-family="ui-rounded, 'Comic Sans MS', sans-serif" font-size="18" font-weight="450">when it runs.</text><text x="65" y="217.8" text-anchor="start" fill="#cae5fb" font-family="ui-rounded, 'Comic Sans MS', sans-serif" font-size="15" font-weight="700">THINKING MODEL · USER MODE</text><text x="158.125" y="275.05" text-anchor="middle" fill="#1674c8" font-family="ui-rounded, 'Comic Sans MS', sans-serif" font-size="15" font-weight="450">Parent completion</text><text x="158.125" y="295.3" text-anchor="middle" fill="#1674c8" font-family="ui-rounded, 'Comic Sans MS', sans-serif" font-size="15" font-weight="450">shared history</text><text x="372.375" y="275.05" text-anchor="middle" fill="#ea580c" font-family="ui-rounded, 'Comic Sans MS', sans-serif" font-size="15" font-weight="450">&lt;Parallel&gt;</text><text x="372.375" y="295.3" text-anchor="middle" fill="#ea580c" font-family="ui-rounded, 'Comic Sans MS', sans-serif" font-size="15" font-weight="450">system call: fork</text><text x="550.25" y="275.05" text-anchor="middle" fill="#2a9d45" font-family="ui-rounded, 'Comic Sans MS', sans-serif" font-size="15" font-weight="450">Parent resumes</text><text x="550.25" y="295.3" text-anchor="middle" fill="#2a9d45" font-family="ui-rounded, 'Comic Sans MS', sans-serif" font-size="15" font-weight="450">&lt;Conclusion&gt;</text><text x="65" y="452.55" text-anchor="start" fill="#4b5563" font-family="ui-rounded, 'Comic Sans MS', sans-serif" font-size="15" font-weight="700">SGLANG · INFERENCE ENGINE / KERNEL</text><text x="195.25" y="545.8" text-anchor="middle" fill="#1674c8" font-family="ui-rounded, 'Comic Sans MS', sans-serif" font-size="15" font-weight="450">Interpreter</text><text x="195.25" y="566.05" text-anchor="middle" fill="#1674c8" font-family="ui-rounded, 'Comic Sans MS', sans-serif" font-size="15" font-weight="450">creates child</text><text x="195.25" y="586.3" text-anchor="middle" fill="#1674c8" font-family="ui-rounded, 'Comic Sans MS', sans-serif" font-size="15" font-weight="450">requests</text><text x="432.625" y="545.8" text-anchor="middle" fill="#ea580c" font-family="ui-rounded, 'Comic Sans MS', sans-serif" font-size="15" font-weight="450">TAPER scheduler</text><text x="432.625" y="566.05" text-anchor="middle" fill="#ea580c" font-family="ui-rounded, 'Comic Sans MS', sans-serif" font-size="15" font-weight="450">admit per forward</text><text x="432.625" y="586.3" text-anchor="middle" fill="#ea580c" font-family="ui-rounded, 'Comic Sans MS', sans-serif" font-size="15" font-weight="450">pass</text><text x="561.75" y="538.8" text-anchor="start" fill="#2a9d45" font-family="ui-rounded, 'Comic Sans MS', sans-serif" font-size="15" font-weight="700">NEXT GPU FORWARD PASS</text><text x="637.625" y="596.05" text-anchor="middle" fill="#2a9d45" font-family="ui-rounded, 'Comic Sans MS', sans-serif" font-size="15" font-weight="450">Child A</text><text x="637.625" y="616.3" text-anchor="middle" fill="#2a9d45" font-family="ui-rounded, 'Comic Sans MS', sans-serif" font-size="15" font-weight="450">running</text><text x="637.625" y="684.55" text-anchor="middle" fill="#2a9d45" font-family="ui-rounded, 'Comic Sans MS', sans-serif" font-size="15" font-weight="450">Child B</text><text x="637.625" y="704.8" text-anchor="middle" fill="#2a9d45" font-family="ui-rounded, 'Comic Sans MS', sans-serif" font-size="15" font-weight="450">running</text><text x="699.375" y="795.05" text-anchor="middle" fill="#ea580c" font-family="ui-rounded, 'Comic Sans MS', sans-serif" font-size="15" font-weight="450">Child C</text><text x="699.375" y="815.3" text-anchor="middle" fill="#ea580c" font-family="ui-rounded, 'Comic Sans MS', sans-serif" font-size="15" font-weight="450">ready, deferred this</text><text x="699.375" y="835.55" text-anchor="middle" fill="#ea580c" font-family="ui-rounded, 'Comic Sans MS', sans-serif" font-size="15" font-weight="450">pass</text><text x="949.625" y="545.8" text-anchor="middle" fill="#7048e8" font-family="ui-rounded, 'Comic Sans MS', sans-serif" font-size="15" font-weight="450">wait()</text><text x="949.625" y="566.05" text-anchor="middle" fill="#7048e8" font-family="ui-rounded, 'Comic Sans MS', sans-serif" font-size="15" font-weight="450">join KV views</text><text x="195.25" y="654.55" text-anchor="middle" fill="#1674c8" font-family="ui-rounded, 'Comic Sans MS', sans-serif" font-size="15" font-weight="450">Shared prefix KV blocks</text><text x="195.25" y="674.8" text-anchor="middle" fill="#1674c8" font-family="ui-rounded, 'Comic Sans MS', sans-serif" font-size="15" font-weight="450">+ small branch-local state</text><text x="699.375" y="485.55" text-anchor="middle" fill="#172033" font-family="ui-rounded, 'Comic Sans MS', sans-serif" font-size="15" font-weight="450">continuous batching · radix KV cache</text><text x="545.625" y="996.3" text-anchor="middle" fill="#172033" font-family="ui-rounded, 'Comic Sans MS', sans-serif" font-size="15" font-weight="450">Model chooses the work graph. Engine chooses</text><text x="545.625" y="1016.55" text-anchor="middle" fill="#172033" font-family="ui-rounded, 'Comic Sans MS', sans-serif" font-size="15" font-weight="450">the schedule.</text></g>
</svg>