<?xml version="1.0" encoding="UTF-8"?>
<svg xmlns="http://www.w3.org/2000/svg" width="1259" height="1056" viewBox="0 0 1259 1056" role="img" aria-label="machine-thought-os">
  <title>machine-thought-os</title>
  <desc>Kvísl layouter prototype preview</desc>
  <rect width="100%" height="100%" fill="#ffffff"/>
  <g id="boundaries"><rect x="52" y="171.5" width="1154.5" height="177" rx="14" fill="#e5f2ff" stroke="#cae5fb" stroke-width="2"/><rect x="52" y="406.5" width="1154.5" height="597.25" rx="14" fill="#f8fafc" stroke="#4b5563" stroke-width="2"/><rect x="620.5" y="472.75" width="296" height="229.25" rx="14" fill="#f8fafc" stroke="#2a9d45" stroke-width="2" stroke-dasharray="10 7"/></g>
  <g id="corridor-dividers"><path d="M 52 377.5 L 1206.5 377.5" fill="none" stroke="#ea580c" stroke-width="2" stroke-dasharray="10 7"/><text x="1198.5" y="369.5" text-anchor="end" font-family="ui-rounded, sans-serif" font-size="13" fill="#ea580c">SYSTEM-CALL BOUNDARY</text></g>
  <g id="lines"><g data-line="$line-1"><polyline points="294,276.25 531.25,276.25" fill="none" stroke="#1674c8" stroke-width="2" stroke-linejoin="round" stroke-linecap="round"/><path d="M 519.25 282.25 L 531.25 276.25 L 519.25 270.25" fill="none" stroke="#1674c8" stroke-width="2" stroke-linejoin="round"/></g><g data-line="$line-2"><polyline points="305.25,517.125 352.5,517.125" fill="none" stroke="#172033" stroke-width="2" stroke-linejoin="round" stroke-linecap="round"/><path d="M 340.5 523.125 L 352.5 517.125 L 340.5 511.125" fill="none" stroke="#172033" stroke-width="2" stroke-linejoin="round"/></g><g data-line="schedule-child-a"><polyline points="572.5,513.125 584.5,513.125 634.5,513.125 634.5,545.8333333333334 658.5,545.8333333333334" fill="none" stroke="#2a9d45" stroke-width="2" stroke-linejoin="round" stroke-linecap="round"/><path d="M 646.5 551.8333333333334 L 658.5 545.8333333333334 L 646.5 539.8333333333334" fill="none" stroke="#2a9d45" stroke-width="2" stroke-linejoin="round"/></g><g data-line="schedule-child-b"><polyline points="572.5,513.125 627.5,513.125 627.5,634.3333333333334 634.5,634.3333333333334 658.5,634.3333333333334" fill="none" stroke="#2a9d45" stroke-width="2" stroke-linejoin="round" stroke-linecap="round"/><path d="M 646.5 640.3333333333334 L 658.5 634.3333333333334 L 646.5 628.3333333333334" fill="none" stroke="#2a9d45" stroke-width="2" stroke-linejoin="round"/></g><g data-line="schedule-child-c"><polyline points="572.5,521.125 584.5,521.125 584.5,751.5833333333334 596.5,751.5833333333334 620.5,751.5833333333334" fill="none" stroke="#2a9d45" stroke-width="2" stroke-linejoin="round" stroke-linecap="round" stroke-dasharray="10 7"/><path d="M 608.5 757.5833333333334 L 620.5 751.5833333333334 L 608.5 745.5833333333334" fill="none" stroke="#2a9d45" stroke-width="2" stroke-linejoin="round"/></g><g data-line="state-child-a"><polyline points="316.5,607.75 634.5,607.75 634.5,568.6666666666666 658.5,568.6666666666666" fill="none" stroke="#1674c8" stroke-width="2" stroke-linejoin="round" stroke-linecap="round" stroke-dasharray="10 7"/><path d="M 646.5 574.6666666666666 L 658.5 568.6666666666666 L 646.5 562.6666666666666" fill="none" stroke="#1674c8" stroke-width="2" stroke-linejoin="round"/></g><g data-line="state-child-b"><polyline points="316.5,615.75 328.5,615.75 328.5,585.5 476.5,585.5 476.5,615.75 634.5,615.75 634.5,657.1666666666666 658.5,657.1666666666666" fill="none" stroke="#1674c8" stroke-width="2" stroke-linejoin="round" stroke-linecap="round" stroke-dasharray="10 7"/><path d="M 646.5 663.1666666666666 L 658.5 657.1666666666666 L 646.5 651.1666666666666" fill="none" stroke="#1674c8" stroke-width="2" stroke-linejoin="round"/></g><g data-line="state-child-c"><polyline points="316.5,623.75 476.5,623.75 476.5,781.1666666666666 620.5,781.1666666666666" fill="none" stroke="#ea580c" stroke-width="2" stroke-linejoin="round" stroke-linecap="round" stroke-dasharray="10 7"/><path d="M 608.5 787.1666666666666 L 620.5 781.1666666666666 L 608.5 775.1666666666666" fill="none" stroke="#ea580c" stroke-width="2" stroke-linejoin="round"/></g><g data-line="join-child-a"><polyline points="878.5,557.25 909.5,557.25 909.5,501 964.5,501" fill="none" stroke="#7048e8" stroke-width="2" stroke-linejoin="round" stroke-linecap="round"/><path d="M 952.5 507 L 964.5 501 L 952.5 495" fill="none" stroke="#7048e8" stroke-width="2" stroke-linejoin="round"/></g><g data-line="join-child-b"><polyline points="878.5,645.75 909.5,645.75 909.5,501 964.5,501" fill="none" stroke="#7048e8" stroke-width="2" stroke-linejoin="round" stroke-linecap="round"/><path d="M 952.5 507 L 964.5 501 L 952.5 495" fill="none" stroke="#7048e8" stroke-width="2" stroke-linejoin="round"/></g><g data-line="join-child-c"><polyline points="916.5,766.375 928.5,766.375 928.5,513 964.5,513" fill="none" stroke="#7048e8" stroke-width="2" stroke-linejoin="round" stroke-linecap="round" stroke-dasharray="10 7"/><path d="M 952.5 519 L 964.5 513 L 952.5 507" fill="none" stroke="#7048e8" stroke-width="2" stroke-linejoin="round"/></g><g data-line="fork-system-call"><polyline points="641.25,310.5 641.25,377.5 418.25,377.5 418.25,448.75 195.25,448.75 195.25,472.75" fill="none" stroke="#ea580c" stroke-width="2" stroke-linejoin="round" stroke-linecap="round"/><path d="M 189.25 460.75 L 195.25 472.75 L 201.25 460.75" fill="none" stroke="#ea580c" stroke-width="2" stroke-linejoin="round"/></g><g data-line="resume-parent"><polyline points="1074.5,472.75 1074.5,310.5" fill="none" stroke="#7048e8" stroke-width="2" stroke-linejoin="round" stroke-linecap="round"/><path d="M 1080.5 322.5 L 1074.5 310.5 L 1068.5 322.5" fill="none" stroke="#7048e8" stroke-width="2" stroke-linejoin="round"/></g></g>
  <g id="objects"><rect x="74" y="242" width="220" height="68.5" rx="14" fill="#cae5fb" stroke="#1674c8" stroke-width="2"/><rect x="531.25" y="242" width="220" height="68.5" rx="14" fill="#fff4c7" stroke="#ea580c" stroke-width="2"/><rect x="964.5" y="242" width="220" height="68.5" rx="14" fill="#e3f8e7" stroke="#2a9d45" stroke-width="2"/><rect x="85.25" y="472.75" width="220" height="88.75" rx="14" fill="#cae5fb" stroke="#1674c8" stroke-width="2"/><rect x="352.5" y="472.75" width="220" height="88.75" rx="14" fill="#fff0df" stroke="#ea580c" stroke-width="2"/><rect x="658.5" y="523" width="220" height="68.5" rx="14" fill="#e3f8e7" stroke="#2a9d45" stroke-width="2"/><rect x="658.5" y="611.5" width="220" height="68.5" rx="14" fill="#e3f8e7" stroke="#2a9d45" stroke-width="2"/><rect x="620.5" y="722" width="296" height="88.75" rx="14" fill="#fff4c7" stroke="#ea580c" stroke-width="2" stroke-dasharray="10 7"/><rect x="964.5" y="472.75" width="220" height="68.5" rx="14" fill="#e2d7ff" stroke="#7048e8" stroke-width="2"/><rect x="74" y="581.5" width="242.5" height="68.5" rx="14" fill="#cae5fb" stroke="#1674c8" stroke-width="2"/></g>
  <g id="ports"></g>
  <g id="text"><text x="52" y="84" text-anchor="start" fill="#172033" font-family="ui-rounded, 'Comic Sans MS', sans-serif" font-size="32" font-weight="700">An operating system for machine thought</text><text x="52" y="139.2" text-anchor="start" fill="#172033" font-family="ui-rounded, 'Comic Sans MS', sans-serif" font-size="18" font-weight="450">The thinking model requests parallelism. The inference engine decides when it runs.</text><text x="65" y="193.5" text-anchor="start" fill="#cae5fb" font-family="ui-rounded, 'Comic Sans MS', sans-serif" font-size="15" font-weight="700">THINKING MODEL · USER</text><text x="65" y="213.75" text-anchor="start" fill="#cae5fb" font-family="ui-rounded, 'Comic Sans MS', sans-serif" font-size="15" font-weight="700">MODE</text><text x="184" y="271" text-anchor="middle" fill="#1674c8" font-family="ui-rounded, 'Comic Sans MS', sans-serif" font-size="15" font-weight="450">Parent completion</text><text x="184" y="291.25" text-anchor="middle" fill="#1674c8" font-family="ui-rounded, 'Comic Sans MS', sans-serif" font-size="15" font-weight="450">shared history</text><text x="641.25" y="271" text-anchor="middle" fill="#ea580c" font-family="ui-rounded, 'Comic Sans MS', sans-serif" font-size="15" font-weight="450">&lt;Parallel&gt;</text><text x="641.25" y="291.25" text-anchor="middle" fill="#ea580c" font-family="ui-rounded, 'Comic Sans MS', sans-serif" font-size="15" font-weight="450">system call: fork</text><text x="1074.5" y="271" text-anchor="middle" fill="#2a9d45" font-family="ui-rounded, 'Comic Sans MS', sans-serif" font-size="15" font-weight="450">Parent resumes</text><text x="1074.5" y="291.25" text-anchor="middle" fill="#2a9d45" font-family="ui-rounded, 'Comic Sans MS', sans-serif" font-size="15" font-weight="450">&lt;Conclusion&gt;</text><text x="65" y="428.5" text-anchor="start" fill="#4b5563" font-family="ui-rounded, 'Comic Sans MS', sans-serif" font-size="15" font-weight="700">SGLANG · INFERENCE ENGINE / KERNEL</text><text x="195.25" y="501.75" text-anchor="middle" fill="#1674c8" font-family="ui-rounded, 'Comic Sans MS', sans-serif" font-size="15" font-weight="450">Interpreter</text><text x="195.25" y="522" text-anchor="middle" fill="#1674c8" font-family="ui-rounded, 'Comic Sans MS', sans-serif" font-size="15" font-weight="450">creates child</text><text x="195.25" y="542.25" text-anchor="middle" fill="#1674c8" font-family="ui-rounded, 'Comic Sans MS', sans-serif" font-size="15" font-weight="450">requests</text><text x="462.5" y="501.75" text-anchor="middle" fill="#ea580c" font-family="ui-rounded, 'Comic Sans MS', sans-serif" font-size="15" font-weight="450">TAPER scheduler</text><text x="462.5" y="522" text-anchor="middle" fill="#ea580c" font-family="ui-rounded, 'Comic Sans MS', sans-serif" font-size="15" font-weight="450">admit per forward</text><text x="462.5" y="542.25" text-anchor="middle" fill="#ea580c" font-family="ui-rounded, 'Comic Sans MS', sans-serif" font-size="15" font-weight="450">pass</text><text x="633.5" y="494.75" text-anchor="start" fill="#2a9d45" font-family="ui-rounded, 'Comic Sans MS', sans-serif" font-size="15" font-weight="700">NEXT GPU FORWARD PASS</text><text x="768.5" y="552" text-anchor="middle" fill="#2a9d45" font-family="ui-rounded, 'Comic Sans MS', sans-serif" font-size="15" font-weight="450">Child A</text><text x="768.5" y="572.25" text-anchor="middle" fill="#2a9d45" font-family="ui-rounded, 'Comic Sans MS', sans-serif" font-size="15" font-weight="450">running</text><text x="768.5" y="640.5" text-anchor="middle" fill="#2a9d45" font-family="ui-rounded, 'Comic Sans MS', sans-serif" font-size="15" font-weight="450">Child B</text><text x="768.5" y="660.75" text-anchor="middle" fill="#2a9d45" font-family="ui-rounded, 'Comic Sans MS', sans-serif" font-size="15" font-weight="450">running</text><text x="768.5" y="751" text-anchor="middle" fill="#ea580c" font-family="ui-rounded, 'Comic Sans MS', sans-serif" font-size="15" font-weight="450">Child C</text><text x="768.5" y="771.25" text-anchor="middle" fill="#ea580c" font-family="ui-rounded, 'Comic Sans MS', sans-serif" font-size="15" font-weight="450">ready, deferred this</text><text x="768.5" y="791.5" text-anchor="middle" fill="#ea580c" font-family="ui-rounded, 'Comic Sans MS', sans-serif" font-size="15" font-weight="450">pass</text><text x="1074.5" y="501.75" text-anchor="middle" fill="#7048e8" font-family="ui-rounded, 'Comic Sans MS', sans-serif" font-size="15" font-weight="450">wait()</text><text x="1074.5" y="522" text-anchor="middle" fill="#7048e8" font-family="ui-rounded, 'Comic Sans MS', sans-serif" font-size="15" font-weight="450">join KV views</text><text x="195.25" y="610.5" text-anchor="middle" fill="#1674c8" font-family="ui-rounded, 'Comic Sans MS', sans-serif" font-size="15" font-weight="450">Shared prefix KV blocks</text><text x="195.25" y="630.75" text-anchor="middle" fill="#1674c8" font-family="ui-rounded, 'Comic Sans MS', sans-serif" font-size="15" font-weight="450">+ small branch-local state</text><text x="768.5" y="441.5" text-anchor="middle" fill="#172033" font-family="ui-rounded, 'Comic Sans MS', sans-serif" font-size="15" font-weight="450">continuous batching · radix KV cache</text><text x="629.25" y="952.25" text-anchor="middle" fill="#172033" font-family="ui-rounded, 'Comic Sans MS', sans-serif" font-size="15" font-weight="450">Model chooses the work graph. Engine chooses</text><text x="629.25" y="972.5" text-anchor="middle" fill="#172033" font-family="ui-rounded, 'Comic Sans MS', sans-serif" font-size="15" font-weight="450">the schedule.</text></g>
</svg>