<?xml version="1.0" encoding="UTF-8"?>
<svg xmlns="http://www.w3.org/2000/svg" width="952" height="429" viewBox="0 0 952 429" role="img" aria-label="uml-component-example">
  <title>uml-component-example</title>
  <desc>Kvísl layouter prototype preview</desc>
  <rect width="100%" height="100%" fill="#ffffff"/>
  <g id="boundaries"><rect x="52" y="121.2" width="847.5" height="255.25" rx="14" fill="#f8fafc" stroke="#7b8794" stroke-width="2"/></g>
  <g id="corridor-dividers"></g>
  <g id="lines"><g data-line="web-checkout"><polyline points="192.75,205.7 248.75,205.7" fill="none" stroke="#334155" stroke-width="2" stroke-linejoin="round" stroke-linecap="round"/></g><g data-line="checkout-inventory"><polyline points="417,217.11666666666665 485,217.11666666666665" fill="none" stroke="#334155" stroke-width="2" stroke-linejoin="round" stroke-linecap="round"/></g><g data-line="checkout-payment"><polyline points="417,199.99166666666667 451,199.99166666666667 451,147.45 681.25,147.45 681.25,194.28333333333333 709.25,194.28333333333333" fill="none" stroke="#334155" stroke-width="2" stroke-linejoin="round" stroke-linecap="round"/></g><g data-line="payment-sdk"><polyline points="709.25,217.11666666666665 689.25,217.11666666666665 689.25,320.2 559.125,320.2 535.125,320.2" fill="none" stroke="#334155" stroke-width="2" stroke-linejoin="round" stroke-linecap="round" stroke-dasharray="10 7"/><path d="M 547.125 314.2 L 535.125 320.2 L 547.125 326.2" fill="none" stroke="#334155" stroke-width="2" stroke-linejoin="round"/></g></g>
  <g id="objects"><g><rect x="74" y="171.45" width="118.75" height="68.5" rx="7" fill="#ffffff" stroke="#26364a" stroke-width="2"/><rect x="69" y="185.45" width="18" height="10" fill="white" stroke="#26364a"/><rect x="69" y="202.45" width="18" height="10" fill="white" stroke="#26364a"/></g><g><rect x="248.75" y="171.45" width="168.25" height="68.5" rx="7" fill="#ffffff" stroke="#26364a" stroke-width="2"/><rect x="243.75" y="185.45" width="18" height="10" fill="white" stroke="#26364a"/><rect x="243.75" y="202.45" width="18" height="10" fill="white" stroke="#26364a"/></g><g><rect x="485" y="171.45" width="168.25" height="68.5" rx="7" fill="#ffffff" stroke="#26364a" stroke-width="2"/><rect x="480" y="185.45" width="18" height="10" fill="white" stroke="#26364a"/><rect x="480" y="202.45" width="18" height="10" fill="white" stroke="#26364a"/></g><g><rect x="709.25" y="171.45" width="168.25" height="68.5" rx="7" fill="#ffffff" stroke="#26364a" stroke-width="2"/><rect x="704.25" y="185.45" width="18" height="10" fill="white" stroke="#26364a"/><rect x="704.25" y="202.45" width="18" height="10" fill="white" stroke="#26364a"/></g><g><rect x="416.375" y="285.95" width="118.75" height="68.5" rx="7" fill="#ffffff" stroke="#26364a" stroke-width="2"/><rect x="411.375" y="299.95" width="18" height="10" fill="white" stroke="#26364a"/><rect x="411.375" y="316.95" width="18" height="10" fill="white" stroke="#26364a"/></g></g>
  <g id="ports"><path data-port-marker="required-interface" d="M 192.75 211.7 Q 184.75 205.7 192.75 199.7" fill="none" stroke="#334155" stroke-width="2"/><circle data-port-marker="provided-interface" cx="248.75" cy="205.7" r="6" fill="#ffffff" stroke="#334155" stroke-width="2"/><path data-port-marker="required-interface" d="M 417 223.11666666666665 Q 409 217.11666666666665 417 211.11666666666665" fill="none" stroke="#334155" stroke-width="2"/><path data-port-marker="required-interface" d="M 417 205.99166666666667 Q 409 199.99166666666667 417 193.99166666666667" fill="none" stroke="#334155" stroke-width="2"/><circle data-port-marker="provided-interface" cx="485" cy="217.11666666666665" r="6" fill="#ffffff" stroke="#334155" stroke-width="2"/><circle data-port-marker="provided-interface" cx="709.25" cy="194.28333333333333" r="6" fill="#ffffff" stroke="#334155" stroke-width="2"/></g>
  <g id="text"><text x="52" y="84" text-anchor="start" fill="#172033" font-family="ui-rounded, 'Comic Sans MS', sans-serif" font-size="32" font-weight="700">Checkout service — component diagram</text><text x="65" y="143.2" text-anchor="start" fill="#172033" font-family="ui-rounded, 'Comic Sans MS', sans-serif" font-size="15" font-weight="700">Checkout System</text><text x="133.375" y="210.575" text-anchor="middle" fill="#172033" font-family="ui-rounded, 'Comic Sans MS', sans-serif" font-size="15" font-weight="450">Checkout UI</text><text x="332.875" y="210.575" text-anchor="middle" fill="#172033" font-family="ui-rounded, 'Comic Sans MS', sans-serif" font-size="15" font-weight="450">Checkout Service</text><text x="569.125" y="210.575" text-anchor="middle" fill="#172033" font-family="ui-rounded, 'Comic Sans MS', sans-serif" font-size="15" font-weight="450">Inventory Service</text><text x="793.375" y="210.575" text-anchor="middle" fill="#172033" font-family="ui-rounded, 'Comic Sans MS', sans-serif" font-size="15" font-weight="450">Payment Adapter</text><text x="475.75" y="314.95" text-anchor="middle" fill="#172033" font-family="ui-rounded, 'Comic Sans MS', sans-serif" font-size="15" font-weight="450">«library»</text><text x="475.75" y="335.2" text-anchor="middle" fill="#172033" font-family="ui-rounded, 'Comic Sans MS', sans-serif" font-size="15" font-weight="450">Stripe SDK</text><g data-line-label="payment-sdk"><text x="624.1875" y="307.2" text-anchor="middle" font-family="ui-rounded, sans-serif" font-size="13" fill="#334155" stroke="#ffffff" stroke-opacity=".92" stroke-width="3.5" stroke-linejoin="round" paint-order="stroke fill">uses</text></g></g>
</svg>