<?xml version="1.0" encoding="UTF-8"?>
<svg xmlns="http://www.w3.org/2000/svg" width="1051" height="703" viewBox="0 0 1051 703" role="img" aria-label="uml-deployment-example">
  <title>uml-deployment-example</title>
  <desc>Kvísl layouter prototype preview</desc>
  <rect width="100%" height="100%" fill="#ffffff"/>
  <g id="boundaries"><g><rect x="52" y="315.7" width="179.25" height="140.75" rx="6" fill="#f8fafc" stroke="#7b8794" stroke-width="2"/><path d="M 60 323.7 L 70 313.7 H 239.25 V 446.45 L 231.25 456.45" fill="none" stroke="#26364a" stroke-width="2"/></g><g><rect x="334.25" y="121.2" width="352.25" height="529.75" rx="6" fill="#f8fafc" stroke="#7b8794" stroke-width="2"/><path d="M 342.25 129.2 L 352.25 119.2 H 694.5 V 640.95 L 686.5 650.95" fill="none" stroke="#26364a" stroke-width="2"/></g><g><rect x="819.1" y="315.7" width="179.25" height="140.75" rx="6" fill="#f8fafc" stroke="#7b8794" stroke-width="2"/><path d="M 827.1 323.7 L 837.1 313.7 H 1006.35 V 446.45 L 998.35 456.45" fill="none" stroke="#26364a" stroke-width="2"/></g><g><rect x="380.25" y="171.45" width="260.25" height="263" rx="6" fill="#f8fafc" stroke="#7b8794" stroke-width="2"/><path d="M 388.25 179.45 L 398.25 169.45 H 648.5 V 424.45 L 640.5 434.45" fill="none" stroke="#26364a" stroke-width="2"/></g><g><rect x="380.25" y="484.45" width="260.25" height="144.50000000000006" rx="6" fill="#f8fafc" stroke="#7b8794" stroke-width="2"/><path d="M 388.25 492.45 L 398.25 482.45 H 648.5 V 618.95 L 640.5 628.95" fill="none" stroke="#26364a" stroke-width="2"/></g></g>
  <g id="corridor-dividers"></g>
  <g id="lines"><g data-line="browser-checkout"><polyline points="231.25,386.075 282.75,386.075 282.75,315.95 412.25,315.95 412.25,245.825 426.25,245.825" fill="none" stroke="#334155" stroke-width="2" stroke-linejoin="round" stroke-linecap="round"/></g><g data-line="checkout-inventory"><polyline points="584.8857142857142,269.95 584.8857142857142,459.45 388.25,459.45 388.25,582.825 402.25,582.825" fill="none" stroke="#334155" stroke-width="2" stroke-linejoin="round" stroke-linecap="round"/></g><g data-line="checkout-database"><polyline points="594.5,245.825 752.8,245.825 752.8,386.075 819.1,386.075" fill="none" stroke="#334155" stroke-width="2" stroke-linejoin="round" stroke-linecap="round"/></g><g data-line="image-deploys-checkout"><polyline points="475.5232142857143,319.95 475.5232142857143,269.95" fill="none" stroke="#334155" stroke-width="2" stroke-linejoin="round" stroke-linecap="round"/><path d="M 481.5232142857143 281.95 L 475.5232142857143 269.95 L 469.5232142857143 281.95" fill="none" stroke="#334155" stroke-width="2" stroke-linejoin="round"/></g></g>
  <g id="objects"><g><rect x="74" y="365.95" width="135.25" height="68.5" rx="5" fill="#ffffff" stroke="#26364a" stroke-width="2"/><path d="M 189.25 365.95 V 385.95 H 209.25" fill="none" stroke="#26364a" stroke-width="2"/></g><g><rect x="426.25" y="221.7" width="168.25" height="48.25" rx="7" fill="#ffffff" stroke="#26364a" stroke-width="2"/><rect x="421.25" y="235.7" width="18" height="10" fill="white" stroke="#26364a"/><rect x="421.25" y="252.7" width="18" height="10" fill="white" stroke="#26364a"/></g><g><rect x="442.75" y="319.95" width="135.25" height="68.5" rx="5" fill="#ffffff" stroke="#26364a" stroke-width="2"/><path d="M 558 319.95 V 339.95 H 578" fill="none" stroke="#26364a" stroke-width="2"/></g><g><rect x="402.25" y="558.7" width="168.25" height="48.25" rx="7" fill="#ffffff" stroke="#26364a" stroke-width="2"/><rect x="397.25" y="572.7" width="18" height="10" fill="white" stroke="#26364a"/><rect x="397.25" y="589.7" width="18" height="10" fill="white" stroke="#26364a"/></g><g><rect x="841.1" y="365.95" width="135.25" height="68.5" rx="5" fill="#ffffff" stroke="#26364a" stroke-width="2"/><path d="M 956.35 365.95 V 385.95 H 976.35" fill="none" stroke="#26364a" stroke-width="2"/></g></g>
  <g id="ports"><rect x="421.25" y="240.825" width="10" height="10" fill="white" stroke="#334155" stroke-width="2"/><rect x="397.25" y="577.825" width="10" height="10" fill="white" stroke="#334155" stroke-width="2"/></g>
  <g id="text"><text x="52" y="84" text-anchor="start" fill="#172033" font-family="ui-rounded, 'Comic Sans MS', sans-serif" font-size="32" font-weight="700">Production checkout — deployment diagram</text><text x="65" y="337.7" text-anchor="start" fill="#172033" font-family="ui-rounded, 'Comic Sans MS', sans-serif" font-size="15" font-weight="700">Customer Browser</text><text x="141.625" y="394.95" text-anchor="middle" fill="#172033" font-family="ui-rounded, 'Comic Sans MS', sans-serif" font-size="15" font-weight="450">«artifact»</text><text x="141.625" y="415.2" text-anchor="middle" fill="#172033" font-family="ui-rounded, 'Comic Sans MS', sans-serif" font-size="15" font-weight="450">checkout.js</text><text x="347.25" y="143.2" text-anchor="start" fill="#172033" font-family="ui-rounded, 'Comic Sans MS', sans-serif" font-size="15" font-weight="700">Production Cluster</text><text x="393.25" y="193.45" text-anchor="start" fill="#172033" font-family="ui-rounded, 'Comic Sans MS', sans-serif" font-size="15" font-weight="700">checkout-7f9d</text><text x="510.375" y="250.7" text-anchor="middle" fill="#172033" font-family="ui-rounded, 'Comic Sans MS', sans-serif" font-size="15" font-weight="450">Checkout Service</text><text x="510.375" y="348.95" text-anchor="middle" fill="#172033" font-family="ui-rounded, 'Comic Sans MS', sans-serif" font-size="15" font-weight="450">«artifact»</text><text x="510.375" y="369.2" text-anchor="middle" fill="#172033" font-family="ui-rounded, 'Comic Sans MS', sans-serif" font-size="15" font-weight="450">checkout:v42</text><text x="393.25" y="506.45" text-anchor="start" fill="#172033" font-family="ui-rounded, 'Comic Sans MS', sans-serif" font-size="15" font-weight="700">inventory-55c8</text><text x="486.375" y="587.7" text-anchor="middle" fill="#172033" font-family="ui-rounded, 'Comic Sans MS', sans-serif" font-size="15" font-weight="450">Inventory Service</text><text x="832.1" y="337.7" text-anchor="start" fill="#172033" font-family="ui-rounded, 'Comic Sans MS', sans-serif" font-size="15" font-weight="700">PostgreSQL</text><text x="908.725" y="394.95" text-anchor="middle" fill="#172033" font-family="ui-rounded, 'Comic Sans MS', sans-serif" font-size="15" font-weight="450">«artifact»</text><text x="908.725" y="415.2" text-anchor="middle" fill="#172033" font-family="ui-rounded, 'Comic Sans MS', sans-serif" font-size="15" font-weight="450">orders schema</text><g><rect x="279.675" y="287.95" width="45" height="20" rx="4" fill="#ffffff" fill-opacity=".9"/><text x="302.175" y="302.95" text-anchor="middle" font-family="ui-rounded, sans-serif" font-size="13" fill="#334155">HTTPS</text></g><g><rect x="467.7678571428571" y="406.45" width="37.6" height="20" rx="4" fill="#ffffff" fill-opacity=".9"/><text x="486.5678571428571" y="421.45" text-anchor="middle" font-family="ui-rounded, sans-serif" font-size="13" fill="#334155">gRPC</text></g><g><rect x="691.755" y="217.825" width="74.60000000000001" height="20" rx="4" fill="#ffffff" fill-opacity=".9"/><text x="729.055" y="232.825" text-anchor="middle" font-family="ui-rounded, sans-serif" font-size="13" fill="#334155">TCP / SQL</text></g><g><rect x="415.1232142857143" y="284.95" width="52.400000000000006" height="20" rx="4" fill="#ffffff" fill-opacity=".9"/><text x="441.3232142857143" y="299.95" text-anchor="middle" font-family="ui-rounded, sans-serif" font-size="13" fill="#334155">deploy</text></g></g>
</svg>