<?xml version="1.0" encoding="UTF-8"?>
<svg xmlns="http://www.w3.org/2000/svg" width="945" height="663" viewBox="0 0 945 663" role="img" aria-label="uml-deployment-example">
  <title>uml-deployment-example</title>
  <desc>Kvísl layouter prototype preview</desc>
  <rect width="100%" height="100%" fill="#ffffff"/>
  <g id="boundaries"><g><rect x="52" y="295.7" width="204" height="140.75" rx="6" fill="#f8fafc" stroke="#7b8794" stroke-width="2"/><path d="M 60 303.7 L 70 293.7 H 264 V 426.45 L 256 436.45" fill="none" stroke="#26364a" stroke-width="2"/></g><g><rect x="312" y="121.2" width="320.25" height="489.75000000000006" rx="6" fill="#f8fafc" stroke="#7b8794" stroke-width="2"/><path d="M 320 129.2 L 330 119.2 H 640.25 V 600.95 L 632.25 610.95" fill="none" stroke="#26364a" stroke-width="2"/></g><g><rect x="688.25" y="295.7" width="204" height="140.75" rx="6" fill="#f8fafc" stroke="#7b8794" stroke-width="2"/><path d="M 696.25 303.7 L 706.25 293.7 H 900.25 V 426.45 L 892.25 436.45" fill="none" stroke="#26364a" stroke-width="2"/></g><g><rect x="350" y="171.45" width="244.25" height="251" rx="6" fill="#f8fafc" stroke="#7b8794" stroke-width="2"/><path d="M 358 179.45 L 368 169.45 H 602.25 V 412.45 L 594.25 422.45" fill="none" stroke="#26364a" stroke-width="2"/></g><g><rect x="350" y="468.45" width="244.25" height="120.50000000000006" rx="6" fill="#f8fafc" stroke="#7b8794" stroke-width="2"/><path d="M 358 476.45 L 368 466.45 H 602.25 V 578.95 L 594.25 588.95" fill="none" stroke="#26364a" stroke-width="2"/></g></g>
  <g id="corridor-dividers"></g>
  <g id="lines"><g data-line="browser-checkout"><polyline points="256,366.075 284,366.075 284,295.7 374,295.7 374,245.825 388,245.825" fill="none" stroke="#334155" stroke-width="2" stroke-linejoin="round" stroke-linecap="round"/></g><g data-line="checkout-inventory"><polyline points="444.0833333333333,269.95 444.0833333333333,283.95 580.25,283.95 580.25,403.45 444.0833333333333,403.45 444.0833333333333,445.45 334,445.45 334,542.825 374,542.825 388,542.825" fill="none" stroke="#334155" stroke-width="2" stroke-linejoin="round" stroke-linecap="round"/></g><g data-line="checkout-database"><polyline points="556.25,245.825 660.25,245.825 660.25,366.075 688.25,366.075" fill="none" stroke="#334155" stroke-width="2" stroke-linejoin="round" stroke-linecap="round"/></g><g data-line="image-deploys-checkout"><polyline points="486.1458333333333,315.95 486.1458333333333,292.95 486.1458333333333,293.95 486.1458333333333,269.95" fill="none" stroke="#334155" stroke-width="2" stroke-linejoin="round" stroke-linecap="round"/><path d="M 492.1458333333333 281.95 L 486.1458333333333 269.95 L 480.1458333333333 281.95" fill="none" stroke="#334155" stroke-width="2" stroke-linejoin="round"/></g></g>
  <g id="objects"><g><rect x="74" y="345.95" width="160" height="68.5" rx="5" fill="#ffffff" stroke="#26364a" stroke-width="2"/><path d="M 214 345.95 V 365.95 H 234" fill="none" stroke="#26364a" stroke-width="2"/></g><g><rect x="388" y="221.7" width="168.25" height="48.25" rx="7" fill="#ffffff" stroke="#26364a" stroke-width="2"/><rect x="383" y="235.7" width="18" height="10" fill="white" stroke="#26364a"/><rect x="383" y="252.7" width="18" height="10" fill="white" stroke="#26364a"/></g><g><rect x="388" y="315.95" width="168.25" height="68.5" rx="5" fill="#ffffff" stroke="#26364a" stroke-width="2"/><path d="M 536.25 315.95 V 335.95 H 556.25" fill="none" stroke="#26364a" stroke-width="2"/></g><g><rect x="388" y="518.7" width="168.25" height="48.25000000000006" rx="7" fill="#ffffff" stroke="#26364a" stroke-width="2"/><rect x="383" y="532.7" width="18" height="10" fill="white" stroke="#26364a"/><rect x="383" y="549.7" width="18" height="10" fill="white" stroke="#26364a"/></g><g><rect x="710.25" y="345.95" width="160" height="68.5" rx="5" fill="#ffffff" stroke="#26364a" stroke-width="2"/><path d="M 850.25 345.95 V 365.95 H 870.25" fill="none" stroke="#26364a" stroke-width="2"/></g></g>
  <g id="ports"><rect x="383" y="240.825" width="10" height="10" fill="#ffffff" stroke="#334155" stroke-width="2"/><rect x="383" y="537.825" width="10" height="10" fill="#ffffff" stroke="#334155" stroke-width="2"/></g>
  <g id="text"><text x="52" y="84" text-anchor="start" fill="#172033" font-family="ui-rounded, 'Comic Sans MS', sans-serif" font-size="32" font-weight="700">Production checkout — deployment diagram</text><text x="65" y="317.7" text-anchor="start" fill="#172033" font-family="ui-rounded, 'Comic Sans MS', sans-serif" font-size="15" font-weight="700">Customer Browser</text><text x="154" y="374.95" text-anchor="middle" fill="#172033" font-family="ui-rounded, 'Comic Sans MS', sans-serif" font-size="15" font-weight="450">«artifact»</text><text x="154" y="395.2" text-anchor="middle" fill="#172033" font-family="ui-rounded, 'Comic Sans MS', sans-serif" font-size="15" font-weight="450">checkout.js</text><text x="325" y="143.2" text-anchor="start" fill="#172033" font-family="ui-rounded, 'Comic Sans MS', sans-serif" font-size="15" font-weight="700">Production Cluster</text><text x="363" y="193.45" text-anchor="start" fill="#172033" font-family="ui-rounded, 'Comic Sans MS', sans-serif" font-size="15" font-weight="700">checkout-7f9d</text><text x="472.125" y="250.7" text-anchor="middle" fill="#172033" font-family="ui-rounded, 'Comic Sans MS', sans-serif" font-size="15" font-weight="450">Checkout Service</text><text x="472.125" y="344.95" text-anchor="middle" fill="#172033" font-family="ui-rounded, 'Comic Sans MS', sans-serif" font-size="15" font-weight="450">«artifact»</text><text x="472.125" y="365.2" text-anchor="middle" fill="#172033" font-family="ui-rounded, 'Comic Sans MS', sans-serif" font-size="15" font-weight="450">checkout:v42</text><text x="363" y="490.45" text-anchor="start" fill="#172033" font-family="ui-rounded, 'Comic Sans MS', sans-serif" font-size="15" font-weight="700">inventory-55c8</text><text x="472.125" y="547.7" text-anchor="middle" fill="#172033" font-family="ui-rounded, 'Comic Sans MS', sans-serif" font-size="15" font-weight="450">Inventory Service</text><text x="701.25" y="317.7" text-anchor="start" fill="#172033" font-family="ui-rounded, 'Comic Sans MS', sans-serif" font-size="15" font-weight="700">PostgreSQL</text><text x="790.25" y="374.95" text-anchor="middle" fill="#172033" font-family="ui-rounded, 'Comic Sans MS', sans-serif" font-size="15" font-weight="450">«artifact»</text><text x="790.25" y="395.2" text-anchor="middle" fill="#172033" font-family="ui-rounded, 'Comic Sans MS', sans-serif" font-size="15" font-weight="450">orders schema</text><g data-line-label="browser-checkout"><text x="284.5" y="282.7" text-anchor="middle" font-family="ui-rounded, sans-serif" font-size="13" fill="#334155" stroke="#ffffff" stroke-opacity=".92" stroke-width="3.5" stroke-linejoin="round" paint-order="stroke fill">HTTPS</text></g><g data-line-label="checkout-inventory"><text x="512.1666666666666" y="306.95" text-anchor="middle" font-family="ui-rounded, sans-serif" font-size="13" fill="#334155" stroke="#ffffff" stroke-opacity=".92" stroke-width="3.5" stroke-linejoin="round" paint-order="stroke fill">gRPC</text></g><g data-line-label="checkout-database"><text x="674.55" y="232.825" text-anchor="middle" font-family="ui-rounded, sans-serif" font-size="13" fill="#334155" stroke="#ffffff" stroke-opacity=".92" stroke-width="3.5" stroke-linejoin="round" paint-order="stroke fill">TCP / SQL</text></g><g data-line-label="image-deploys-checkout"><text x="410.9458333333333" y="290.55" text-anchor="middle" font-family="ui-rounded, sans-serif" font-size="13" fill="#334155" stroke="#ffffff" stroke-opacity=".92" stroke-width="3.5" stroke-linejoin="round" paint-order="stroke fill">deploy</text></g></g>
</svg>