<?xml version="1.0" encoding="UTF-8"?>
<svg xmlns="http://www.w3.org/2000/svg" width="1053" height="711" viewBox="0 0 1053 711" role="img" aria-label="uml-use-case-example">
  <title>uml-use-case-example</title>
  <desc>Kvísl layouter prototype preview</desc>
  <rect width="100%" height="100%" fill="#ffffff"/>
  <g id="boundaries"><rect x="219.25" y="121.2" width="589" height="537" rx="14" fill="#f8fafc" stroke="#7b8794" stroke-width="2"/></g>
  <g id="corridor-dividers"></g>
  <g id="lines"><g data-line="checkout-auth"><polyline points="409,395.7833333333333 489,395.7833333333333 489,195.575 569,195.575" fill="none" stroke="#334155" stroke-width="2" stroke-linejoin="round" stroke-linecap="round" stroke-dasharray="10 7"/><path d="M 557 201.575 L 569 195.575 L 557 189.575" fill="none" stroke="#334155" stroke-width="2" stroke-linejoin="round"/></g><g data-line="checkout-pay"><polyline points="409,407.8458333333333 569,407.8458333333333" fill="none" stroke="#334155" stroke-width="2" stroke-linejoin="round" stroke-linecap="round" stroke-dasharray="10 7"/><path d="M 557 413.8458333333333 L 569 407.8458333333333 L 557 401.8458333333333" fill="none" stroke="#334155" stroke-width="2" stroke-linejoin="round"/></g><g data-line="refund-notify"><polyline points="409,612.075 569,612.075" fill="none" stroke="#334155" stroke-width="2" stroke-linejoin="round" stroke-linecap="round" stroke-dasharray="10 7"/><path d="M 557 618.075 L 569 612.075 L 557 606.075" fill="none" stroke="#334155" stroke-width="2" stroke-linejoin="round"/></g><g data-line="refund-checkout"><polyline points="333.125,587.95 333.125,427.95" fill="none" stroke="#334155" stroke-width="2" stroke-linejoin="round" stroke-linecap="round" stroke-dasharray="10 7"/><path d="M 339.125 439.95 L 333.125 427.95 L 327.125 439.95" fill="none" stroke="#334155" stroke-width="2" stroke-linejoin="round"/></g><g data-line="customer-browse"><polyline points="136.625,265.9083333333333 243.25,265.9083333333333 243.25,195.575 257.25,195.575" fill="none" stroke="#334155" stroke-width="2" stroke-linejoin="round" stroke-linecap="round"/></g><g data-line="customer-checkout"><polyline points="136.625,286.2416666666667 243.25,286.2416666666667 243.25,403.825 257.25,403.825" fill="none" stroke="#334155" stroke-width="2" stroke-linejoin="round" stroke-linecap="round"/></g><g data-line="support-refund"><polyline points="136.625,572.45 243.25,572.45 243.25,612.075 257.25,612.075" fill="none" stroke="#334155" stroke-width="2" stroke-linejoin="round" stroke-linecap="round"/></g><g data-line="provider-pay"><polyline points="903.25,393.7 770.25,393.7" fill="none" stroke="#334155" stroke-width="2" stroke-linejoin="round" stroke-linecap="round"/></g><g data-line="mail-notify"><polyline points="903.25,572.45 784.25,572.45 784.25,612.075 770.25,612.075" fill="none" stroke="#334155" stroke-width="2" stroke-linejoin="round" stroke-linecap="round"/></g></g>
  <g id="objects"><g fill="none" stroke="#26364a" stroke-width="2"><circle cx="119.625" cy="254.575" r="8"/><path d="M 119.625 262.575 V 288.575 M 102.625 272.575 H 136.625 M 119.625 288.575 L 104.625 306.575 M 119.625 288.575 L 134.625 306.575"/></g><g fill="none" stroke="#26364a" stroke-width="2"><circle cx="119.625" cy="550.95" r="8"/><path d="M 119.625 558.95 V 584.95 M 102.625 568.95 H 136.625 M 119.625 584.95 L 104.625 602.95 M 119.625 584.95 L 134.625 602.95"/></g><ellipse cx="333.125" cy="195.575" rx="75.875" ry="24.125" fill="#ffffff" stroke="#26364a" stroke-width="2"/><ellipse cx="669.625" cy="195.575" rx="100.625" ry="24.125" fill="#ffffff" stroke="#26364a" stroke-width="2"/><ellipse cx="333.125" cy="403.825" rx="75.875" ry="24.125" fill="#ffffff" stroke="#26364a" stroke-width="2"/><ellipse cx="669.625" cy="403.825" rx="100.625" ry="24.125" fill="#ffffff" stroke="#26364a" stroke-width="2"/><ellipse cx="333.125" cy="612.075" rx="75.875" ry="24.125" fill="#ffffff" stroke="#26364a" stroke-width="2"/><ellipse cx="669.625" cy="612.075" rx="100.625" ry="24.125" fill="#ffffff" stroke="#26364a" stroke-width="2"/><g fill="none" stroke="#26364a" stroke-width="2"><circle cx="920.25" cy="358.7" r="8"/><path d="M 920.25 366.7 V 392.7 M 903.25 376.7 H 937.25 M 920.25 392.7 L 905.25 410.7 M 920.25 392.7 L 935.25 410.7"/></g><g fill="none" stroke="#26364a" stroke-width="2"><circle cx="920.25" cy="550.95" r="8"/><path d="M 920.25 558.95 V 584.95 M 903.25 568.95 H 937.25 M 920.25 584.95 L 905.25 602.95 M 920.25 584.95 L 935.25 602.95"/></g></g>
  <g id="ports"></g>
  <g id="text"><text x="52" y="84" text-anchor="start" fill="#172033" font-family="ui-rounded, 'Comic Sans MS', sans-serif" font-size="32" font-weight="700">Online store — use-case diagram</text><text x="119.625" y="352.575" text-anchor="middle" fill="#172033" font-family="ui-rounded, 'Comic Sans MS', sans-serif" font-size="15" font-weight="450">Customer</text><text x="119.625" y="648.95" text-anchor="middle" fill="#172033" font-family="ui-rounded, 'Comic Sans MS', sans-serif" font-size="15" font-weight="450">Support Agent</text><text x="232.25" y="143.2" text-anchor="start" fill="#172033" font-family="ui-rounded, 'Comic Sans MS', sans-serif" font-size="15" font-weight="700">Online Store</text><text x="333.125" y="200.45" text-anchor="middle" fill="#172033" font-family="ui-rounded, 'Comic Sans MS', sans-serif" font-size="15" font-weight="450">Browse catalog</text><text x="669.625" y="200.45" text-anchor="middle" fill="#172033" font-family="ui-rounded, 'Comic Sans MS', sans-serif" font-size="15" font-weight="450">Authenticate customer</text><text x="333.125" y="408.7" text-anchor="middle" fill="#172033" font-family="ui-rounded, 'Comic Sans MS', sans-serif" font-size="15" font-weight="450">Checkout</text><text x="669.625" y="408.7" text-anchor="middle" fill="#172033" font-family="ui-rounded, 'Comic Sans MS', sans-serif" font-size="15" font-weight="450">Process payment</text><text x="333.125" y="616.95" text-anchor="middle" fill="#172033" font-family="ui-rounded, 'Comic Sans MS', sans-serif" font-size="15" font-weight="450">Refund order</text><text x="669.625" y="616.95" text-anchor="middle" fill="#172033" font-family="ui-rounded, 'Comic Sans MS', sans-serif" font-size="15" font-weight="450">Send notification</text><text x="920.25" y="456.7" text-anchor="middle" fill="#172033" font-family="ui-rounded, 'Comic Sans MS', sans-serif" font-size="15" font-weight="450">Payment Provider</text><text x="920.25" y="648.95" text-anchor="middle" fill="#172033" font-family="ui-rounded, 'Comic Sans MS', sans-serif" font-size="15" font-weight="450">Mail Service</text><g data-line-label="checkout-auth"><text x="461" y="382.7833333333333" text-anchor="middle" font-family="ui-rounded, sans-serif" font-size="13" fill="#334155" stroke="#ffffff" stroke-opacity=".92" stroke-width="3.5" stroke-linejoin="round" paint-order="stroke fill">«include»</text></g><g data-line-label="checkout-pay"><text x="489" y="430.8458333333333" text-anchor="middle" font-family="ui-rounded, sans-serif" font-size="13" fill="#334155" stroke="#ffffff" stroke-opacity=".92" stroke-width="3.5" stroke-linejoin="round" paint-order="stroke fill">«include»</text></g><g data-line-label="refund-notify"><text x="489" y="599.075" text-anchor="middle" font-family="ui-rounded, sans-serif" font-size="13" fill="#334155" stroke="#ffffff" stroke-opacity=".92" stroke-width="3.5" stroke-linejoin="round" paint-order="stroke fill">«include»</text></g><g data-line-label="refund-checkout"><text x="291.525" y="499.95000000000005" text-anchor="middle" font-family="ui-rounded, sans-serif" font-size="13" fill="#334155" stroke="#ffffff" stroke-opacity=".92" stroke-width="3.5" stroke-linejoin="round" paint-order="stroke fill">«extend»</text></g><g data-line-label="refund-checkout"><text x="291.5249999999999" y="525.95" text-anchor="middle" font-family="ui-rounded, sans-serif" font-size="13" fill="#334155" stroke="#ffffff" stroke-opacity=".92" stroke-width="3.5" stroke-linejoin="round" paint-order="stroke fill">[paid]</text></g></g>
</svg>