<?xml version="1.0" encoding="UTF-8"?>
<svg xmlns="http://www.w3.org/2000/svg" width="945" height="724" viewBox="0 0 945 724" role="img" aria-label="uml-deployment-example">
  <title>uml-deployment-example</title>
  <desc>Kvísl layouter prototype preview</desc>
  <rect width="100%" height="100%" fill="#ffffff"/>
  <g id="boundaries"><g><rect x="52" y="315.95" width="204" height="161" rx="6" fill="#f8fafc" stroke="#7b8794" stroke-width="2"/><path d="M 60 323.95 L 70 313.95 H 264 V 466.95 L 256 476.95" fill="none" stroke="#26364a" stroke-width="2"/></g><g><rect x="312" y="121.2" width="320.25" height="550.5" rx="6" fill="#f8fafc" stroke="#7b8794" stroke-width="2"/><path d="M 320 129.2 L 330 119.2 H 640.25 V 661.7 L 632.25 671.7" fill="none" stroke="#26364a" stroke-width="2"/></g><g><rect x="688.25" y="315.95" width="204" height="161" rx="6" fill="#f8fafc" stroke="#7b8794" stroke-width="2"/><path d="M 696.25 323.95 L 706.25 313.95 H 900.25 V 466.95 L 892.25 476.95" fill="none" stroke="#26364a" stroke-width="2"/></g><g><rect x="350" y="191.7" width="244.25" height="271.25" rx="6" fill="#f8fafc" stroke="#7b8794" stroke-width="2"/><path d="M 358 199.7 L 368 189.7 H 602.25 V 452.95 L 594.25 462.95" fill="none" stroke="#26364a" stroke-width="2"/></g><g><rect x="350" y="508.95" width="244.25" height="140.75000000000006" rx="6" fill="#f8fafc" stroke="#7b8794" stroke-width="2"/><path d="M 358 516.95 L 368 506.95 H 602.25 V 639.7 L 594.25 649.7" fill="none" stroke="#26364a" stroke-width="2"/></g></g>
  <g id="corridor-dividers"></g>
  <g id="lines"><g data-line="browser-checkout"><polyline points="256,396.45 284,396.45 284,315.95 376,315.95 376,286.325 388,286.325" fill="none" stroke="#334155" stroke-width="2" stroke-linejoin="round" stroke-linecap="round"/></g><g data-line="checkout-inventory"><polyline points="444.0833333333333,310.45 444.0833333333333,324.45 364,324.45 364,443.95 444.0833333333333,443.95 444.0833333333333,485.95 334,485.95 334,603.575 376,603.575 388,603.575" fill="none" stroke="#334155" stroke-width="2" stroke-linejoin="round" stroke-linecap="round"/></g><g data-line="checkout-database"><polyline points="556.25,286.325 660.25,286.325 660.25,396.45 688.25,396.45" fill="none" stroke="#334155" stroke-width="2" stroke-linejoin="round" stroke-linecap="round"/></g><g data-line="image-deploys-checkout"><polyline points="486.1458333333333,356.45 486.1458333333333,310.45" fill="none" stroke="#334155" stroke-width="2" stroke-linejoin="round" stroke-linecap="round" stroke-dasharray="10 7"/><path d="M 492.1458333333333 322.45 L 486.1458333333333 310.45 L 480.1458333333333 322.45" fill="none" stroke="#334155" stroke-width="2" stroke-linejoin="round"/></g></g>
  <g id="objects"><g><rect x="74" y="386.45" width="160" height="68.5" rx="5" fill="#ffffff" stroke="#26364a" stroke-width="2"/><path d="M 214 386.45 V 406.45 H 234" fill="none" stroke="#26364a" stroke-width="2"/></g><g><rect x="388" y="262.2" width="168.25" height="48.25" rx="7" fill="#ffffff" stroke="#26364a" stroke-width="2"/><rect x="383" y="276.2" width="18" height="10" fill="white" stroke="#26364a"/><rect x="383" y="293.2" width="18" height="10" fill="white" stroke="#26364a"/></g><g><rect x="388" y="356.45" width="168.25" height="68.5" rx="5" fill="#ffffff" stroke="#26364a" stroke-width="2"/><path d="M 536.25 356.45 V 376.45 H 556.25" fill="none" stroke="#26364a" stroke-width="2"/></g><g><rect x="388" y="579.45" width="168.25" height="48.25" rx="7" fill="#ffffff" stroke="#26364a" stroke-width="2"/><rect x="383" y="593.45" width="18" height="10" fill="white" stroke="#26364a"/><rect x="383" y="610.45" width="18" height="10" fill="white" stroke="#26364a"/></g><g><rect x="710.25" y="386.45" width="160" height="68.5" rx="5" fill="#ffffff" stroke="#26364a" stroke-width="2"/><path d="M 850.25 386.45 V 406.45 H 870.25" fill="none" stroke="#26364a" stroke-width="2"/></g></g>
  <g id="ports"><rect x="383" y="281.325" width="10" height="10" fill="#ffffff" stroke="#334155" stroke-width="2"/><rect x="383" y="598.575" width="10" height="10" fill="#ffffff" stroke="#334155" stroke-width="2"/></g>
  <g id="text"><text x="52" y="84" text-anchor="start" fill="#172033" font-family="ui-rounded, 'Comic Sans MS', sans-serif" font-size="32" font-weight="700">Production checkout — deployment diagram</text><text x="65" y="337.95" text-anchor="start" fill="#172033" font-family="ui-rounded, 'Comic Sans MS', sans-serif" font-size="15" font-weight="450">«device»</text><text x="65" y="358.2" text-anchor="start" fill="#172033" font-family="ui-rounded, 'Comic Sans MS', sans-serif" font-size="15" font-weight="700">Customer Browser</text><text x="154" y="415.45" text-anchor="middle" fill="#172033" font-family="ui-rounded, 'Comic Sans MS', sans-serif" font-size="15" font-weight="450">«artifact»</text><text x="154" y="435.7" text-anchor="middle" fill="#172033" font-family="ui-rounded, 'Comic Sans MS', sans-serif" font-size="15" font-weight="450">checkout.js</text><text x="325" y="143.2" text-anchor="start" fill="#172033" font-family="ui-rounded, 'Comic Sans MS', sans-serif" font-size="15" font-weight="450">«node»</text><text x="325" y="163.45" text-anchor="start" fill="#172033" font-family="ui-rounded, 'Comic Sans MS', sans-serif" font-size="15" font-weight="700">Production Cluster</text><text x="363" y="213.7" text-anchor="start" fill="#172033" font-family="ui-rounded, 'Comic Sans MS', sans-serif" font-size="15" font-weight="450">«executionEnvironment»</text><text x="363" y="233.95" text-anchor="start" fill="#172033" font-family="ui-rounded, 'Comic Sans MS', sans-serif" font-size="15" font-weight="700">checkout-7f9d</text><text x="472.125" y="291.2" text-anchor="middle" fill="#172033" font-family="ui-rounded, 'Comic Sans MS', sans-serif" font-size="15" font-weight="450">Checkout Service</text><text x="472.125" y="385.45" text-anchor="middle" fill="#172033" font-family="ui-rounded, 'Comic Sans MS', sans-serif" font-size="15" font-weight="450">«artifact»</text><text x="472.125" y="405.7" text-anchor="middle" fill="#172033" font-family="ui-rounded, 'Comic Sans MS', sans-serif" font-size="15" font-weight="450">checkout:v42</text><text x="363" y="530.95" text-anchor="start" fill="#172033" font-family="ui-rounded, 'Comic Sans MS', sans-serif" font-size="15" font-weight="450">«executionEnvironment»</text><text x="363" y="551.2" text-anchor="start" fill="#172033" font-family="ui-rounded, 'Comic Sans MS', sans-serif" font-size="15" font-weight="700">inventory-55c8</text><text x="472.125" y="608.45" text-anchor="middle" fill="#172033" font-family="ui-rounded, 'Comic Sans MS', sans-serif" font-size="15" font-weight="450">Inventory Service</text><text x="701.25" y="337.95" text-anchor="start" fill="#172033" font-family="ui-rounded, 'Comic Sans MS', sans-serif" font-size="15" font-weight="450">«device»</text><text x="701.25" y="358.2" text-anchor="start" fill="#172033" font-family="ui-rounded, 'Comic Sans MS', sans-serif" font-size="15" font-weight="700">PostgreSQL</text><text x="790.25" y="415.45" text-anchor="middle" fill="#172033" font-family="ui-rounded, 'Comic Sans MS', sans-serif" font-size="15" font-weight="450">«artifact»</text><text x="790.25" y="435.7" text-anchor="middle" fill="#172033" font-family="ui-rounded, 'Comic Sans MS', sans-serif" font-size="15" font-weight="450">orders schema</text><g data-line-label="browser-checkout"><text x="284.5" y="302.95" text-anchor="middle" font-family="ui-rounded, sans-serif" font-size="13" fill="#334155" stroke="#ffffff" stroke-opacity=".92" stroke-width="3.5" stroke-linejoin="round" paint-order="stroke fill">HTTPS</text></g><g data-line-label="checkout-inventory"><text x="389.04166666666663" y="449.95" text-anchor="middle" font-family="ui-rounded, sans-serif" font-size="13" fill="#334155" stroke="#ffffff" stroke-opacity=".92" stroke-width="3.5" stroke-linejoin="round" paint-order="stroke fill">gRPC</text></g><g data-line-label="checkout-database"><text x="674.55" y="273.325" text-anchor="middle" font-family="ui-rounded, sans-serif" font-size="13" fill="#334155" stroke="#ffffff" stroke-opacity=".92" stroke-width="3.5" stroke-linejoin="round" paint-order="stroke fill">TCP / SQL</text></g><g data-line-label="image-deploys-checkout"><text x="527.7458333333333" y="338.45" text-anchor="middle" font-family="ui-rounded, sans-serif" font-size="13" fill="#334155" stroke="#ffffff" stroke-opacity=".92" stroke-width="3.5" stroke-linejoin="round" paint-order="stroke fill">«deploy»</text></g></g>
</svg>