<?xml version="1.0" encoding="UTF-8"?>
<svg xmlns="http://www.w3.org/2000/svg" width="707" height="698" viewBox="0 0 707 698" role="img" aria-label="uml-package-example">
  <title>uml-package-example</title>
  <desc>Kvísl layouter prototype preview</desc>
  <rect width="100%" height="100%" fill="#ffffff"/>
  <g id="boundaries"><path d="M 52 145.2 V 456.7 H 291.75 V 145.2 H 156.4 L 146.4 121.2 H 52 Z" fill="#f8fafc" stroke="#7b8794" stroke-width="2"/><path d="M 370.15 145.2 V 277.95 H 565.9 V 145.2 H 483.84999999999997 L 473.84999999999997 121.2 H 370.15 Z" fill="#f8fafc" stroke="#7b8794" stroke-width="2"/><path d="M 64.375 512.7 V 645.45 H 279.375 V 512.7 H 168.775 L 158.775 488.7 H 64.375 Z" fill="#f8fafc" stroke="#7b8794" stroke-width="2"/><path d="M 382.525 512.7 V 645.45 H 553.525 V 512.7 H 502.22499999999997 L 492.22499999999997 488.7 H 382.525 Z" fill="#f8fafc" stroke="#7b8794" stroke-width="2"/><path d="M 74 301.95 V 434.7 H 269.75 V 301.95 H 206.3 L 196.3 277.95 H 74 Z" fill="#f8fafc" stroke="#7b8794" stroke-width="2"/></g>
  <g id="corridor-dividers"></g>
  <g id="lines"><g data-line="checkout-inventory"><polyline points="291.75,217.725 370.15,217.725" fill="none" stroke="#334155" stroke-width="2" stroke-linejoin="round" stroke-linecap="round"/><path d="M 358.15 223.725 L 370.15 217.725 L 358.15 211.725" fill="none" stroke="#334155" stroke-width="2" stroke-linejoin="round"/></g><g data-line="checkout-payments"><polyline points="252.7267857142857,456.7 252.7267857142857,488.7" fill="none" stroke="#334155" stroke-width="2" stroke-linejoin="round" stroke-linecap="round"/><path d="M 246.7267857142857 476.7 L 252.7267857142857 488.7 L 258.7267857142857 476.7" fill="none" stroke="#334155" stroke-width="2" stroke-linejoin="round"/></g><g data-line="checkout-shared"><polyline points="291.75,344.8666666666667 368.525,344.8666666666667 368.525,537.9642857142858 382.525,537.9642857142858" fill="none" stroke="#334155" stroke-width="2" stroke-linejoin="round" stroke-linecap="round"/><path d="M 370.525 543.9642857142858 L 382.525 537.9642857142858 L 370.525 531.9642857142858" fill="none" stroke="#334155" stroke-width="2" stroke-linejoin="round"/></g><g data-line="payments-shared"><polyline points="279.375,582.75 382.525,582.75" fill="none" stroke="#334155" stroke-width="2" stroke-linejoin="round" stroke-linecap="round"/><path d="M 370.525 588.75 L 382.525 582.75 L 370.525 576.75" fill="none" stroke="#334155" stroke-width="2" stroke-linejoin="round"/></g></g>
  <g id="objects"><rect x="96" y="171.45" width="151.75" height="84.5" rx="2" fill="#ffffff" stroke="#26364a" stroke-width="2"/><rect x="96" y="328.2" width="151.75" height="84.5" rx="2" fill="#ffffff" stroke="#26364a" stroke-width="2"/><rect x="392.15" y="171.45" width="151.75" height="84.5" rx="2" fill="#ffffff" stroke="#26364a" stroke-width="2"/><rect x="86.375" y="538.95" width="151.75" height="84.5" rx="2" fill="#ffffff" stroke="#26364a" stroke-width="2"/><rect x="404.525" y="538.95" width="72" height="84.5" rx="2" fill="#ffffff" stroke="#26364a" stroke-width="2"/></g>
  <g id="ports"></g>
  <g id="text"><text x="52" y="84" text-anchor="start" fill="#172033" font-family="ui-rounded, 'Comic Sans MS', sans-serif" font-size="32" font-weight="700">Commerce modules — package diagram</text><text x="65" y="138.2" text-anchor="start" fill="#172033" font-family="ui-rounded, 'Comic Sans MS', sans-serif" font-size="15" font-weight="700">checkout</text><text x="109" y="218.575" text-anchor="start" fill="#172033" font-family="ui-rounded, 'Comic Sans MS', sans-serif" font-size="15" font-weight="700">CheckoutService</text><path d="M 97 226.825 H 246.75" stroke="#26364a" stroke-width="1"/><path d="M 97 226.825 H 246.75" stroke="#26364a" stroke-width="1"/><text x="87" y="294.95" text-anchor="start" fill="#172033" font-family="ui-rounded, 'Comic Sans MS', sans-serif" font-size="15" font-weight="700">application</text><text x="109" y="375.325" text-anchor="start" fill="#172033" font-family="ui-rounded, 'Comic Sans MS', sans-serif" font-size="15" font-weight="700">PlaceOrder</text><path d="M 97 383.575 H 246.75" stroke="#26364a" stroke-width="1"/><path d="M 97 383.575 H 246.75" stroke="#26364a" stroke-width="1"/><text x="383.15" y="138.2" text-anchor="start" fill="#172033" font-family="ui-rounded, 'Comic Sans MS', sans-serif" font-size="15" font-weight="700">inventory</text><text x="405.15" y="208.45" text-anchor="start" fill="#172033" font-family="ui-rounded, 'Comic Sans MS', sans-serif" font-size="15" font-weight="450">«interface»</text><text x="405.15" y="228.7" text-anchor="start" fill="#172033" font-family="ui-rounded, 'Comic Sans MS', sans-serif" font-size="15" font-weight="700">InventoryApi</text><path d="M 393.15 236.95 H 542.9" stroke="#26364a" stroke-width="1"/><path d="M 393.15 236.95 H 542.9" stroke="#26364a" stroke-width="1"/><text x="77.375" y="505.7" text-anchor="start" fill="#172033" font-family="ui-rounded, 'Comic Sans MS', sans-serif" font-size="15" font-weight="700">payments</text><text x="99.375" y="575.95" text-anchor="start" fill="#172033" font-family="ui-rounded, 'Comic Sans MS', sans-serif" font-size="15" font-weight="450">«interface»</text><text x="99.375" y="596.2" text-anchor="start" fill="#172033" font-family="ui-rounded, 'Comic Sans MS', sans-serif" font-size="15" font-weight="700">PaymentApi</text><path d="M 87.375 604.45 H 237.125" stroke="#26364a" stroke-width="1"/><path d="M 87.375 604.45 H 237.125" stroke="#26364a" stroke-width="1"/><text x="395.525" y="505.7" text-anchor="start" fill="#172033" font-family="ui-rounded, 'Comic Sans MS', sans-serif" font-size="15" font-weight="700">shared-kernel</text><text x="417.525" y="586.075" text-anchor="start" fill="#172033" font-family="ui-rounded, 'Comic Sans MS', sans-serif" font-size="15" font-weight="700">Money</text><path d="M 405.525 594.325 H 475.525" stroke="#26364a" stroke-width="1"/><path d="M 405.525 594.325 H 475.525" stroke="#26364a" stroke-width="1"/><g><rect x="304.75" y="189.725" width="52.400000000000006" height="20" rx="4" fill="#ffffff" fill-opacity=".9"/><text x="330.95" y="204.725" text-anchor="middle" font-family="ui-rounded, sans-serif" font-size="13" fill="#334155">import</text></g><g><rect x="192.32678571428573" y="462.7" width="52.400000000000006" height="20" rx="4" fill="#ffffff" fill-opacity=".9"/><text x="218.52678571428572" y="477.7" text-anchor="middle" font-family="ui-rounded, sans-serif" font-size="13" fill="#334155">access</text></g><g><rect x="303.9375" y="316.8666666666667" width="52.400000000000006" height="20" rx="4" fill="#ffffff" fill-opacity=".9"/><text x="330.1375" y="331.8666666666667" text-anchor="middle" font-family="ui-rounded, sans-serif" font-size="13" fill="#334155">import</text></g><g><rect x="308.45" y="554.75" width="45" height="20" rx="4" fill="#ffffff" fill-opacity=".9"/><text x="330.95" y="569.75" text-anchor="middle" font-family="ui-rounded, sans-serif" font-size="13" fill="#334155">merge</text></g></g>
</svg>