<?xml version="1.0" encoding="UTF-8"?>
<svg xmlns="http://www.w3.org/2000/svg" width="1296" height="840" viewBox="0 0 1296 840" role="img" aria-label="port-sharing">
  <title>port-sharing</title>
  <desc>Kvísl layouter prototype preview</desc>
  <rect width="100%" height="100%" fill="#ffffff"/>
  <g id="boundaries"><rect x="52" y="171.5" width="580" height="292.25" rx="14" fill="#f8fafc" stroke="#7b8794" stroke-width="2"/><rect x="664" y="171.5" width="580" height="292.25" rx="14" fill="#f8fafc" stroke="#7b8794" stroke-width="2"/><rect x="52" y="495.75" width="580" height="292.25" rx="14" fill="#f8fafc" stroke="#7b8794" stroke-width="2"/><rect x="664" y="495.75" width="580" height="292.25" rx="14" fill="#f8fafc" stroke="#7b8794" stroke-width="2"/></g>
  <g id="corridor-dividers"></g>
  <g id="lines"><g data-line="$line-1"><polyline points="294,251.75 342,251.75 342,331.75 354,331.75 390,331.75" fill="none" stroke="#334155" stroke-width="2" stroke-linejoin="round" stroke-linecap="round"/><path d="M 378 337.75 L 390 331.75 L 378 325.75" fill="none" stroke="#334155" stroke-width="2" stroke-linejoin="round"/></g><g data-line="$line-2"><polyline points="294,331.75 354,331.75 390,331.75" fill="none" stroke="#334155" stroke-width="2" stroke-linejoin="round" stroke-linecap="round"/><path d="M 378 337.75 L 390 331.75 L 378 325.75" fill="none" stroke="#334155" stroke-width="2" stroke-linejoin="round"/></g><g data-line="$line-3"><polyline points="294,411.75 342,411.75 342,331.75 354,331.75 390,331.75" fill="none" stroke="#334155" stroke-width="2" stroke-linejoin="round" stroke-linecap="round"/><path d="M 378 337.75 L 390 331.75 L 378 325.75" fill="none" stroke="#334155" stroke-width="2" stroke-linejoin="round"/></g><g data-line="$line-4"><polyline points="906,251.75 954,251.75 954,319.75 1002,319.75" fill="none" stroke="#334155" stroke-width="2" stroke-linejoin="round" stroke-linecap="round"/><path d="M 990 325.75 L 1002 319.75 L 990 313.75" fill="none" stroke="#334155" stroke-width="2" stroke-linejoin="round"/></g><g data-line="$line-5"><polyline points="906,331.75 1002,331.75" fill="none" stroke="#334155" stroke-width="2" stroke-linejoin="round" stroke-linecap="round"/><path d="M 990 337.75 L 1002 331.75 L 990 325.75" fill="none" stroke="#334155" stroke-width="2" stroke-linejoin="round"/></g><g data-line="$line-6"><polyline points="906,411.75 954,411.75 954,343.75 1002,343.75" fill="none" stroke="#334155" stroke-width="2" stroke-linejoin="round" stroke-linecap="round"/><path d="M 990 349.75 L 1002 343.75 L 990 337.75" fill="none" stroke="#334155" stroke-width="2" stroke-linejoin="round"/></g><g data-line="$line-7"><polyline points="294,576 336,576 336,636 390,636" fill="none" stroke="#334155" stroke-width="2" stroke-linejoin="round" stroke-linecap="round"/><path d="M 378 642 L 390 636 L 378 630" fill="none" stroke="#334155" stroke-width="2" stroke-linejoin="round"/></g><g data-line="$line-8"><polyline points="294,656 390,656" fill="none" stroke="#334155" stroke-width="2" stroke-linejoin="round" stroke-linecap="round"/><path d="M 378 662 L 390 656 L 378 650" fill="none" stroke="#334155" stroke-width="2" stroke-linejoin="round"/></g><g data-line="$line-9"><polyline points="294,736 348,736 348,676 390,676" fill="none" stroke="#334155" stroke-width="2" stroke-linejoin="round" stroke-linecap="round"/><path d="M 378 682 L 390 676 L 378 670" fill="none" stroke="#334155" stroke-width="2" stroke-linejoin="round"/></g><g data-line="$line-10"><polyline points="906,576 948,576 948,650 1002,650" fill="none" stroke="#2563eb" stroke-width="2" stroke-linejoin="round" stroke-linecap="round"/><path d="M 990 656 L 1002 650 L 990 644" fill="none" stroke="#2563eb" stroke-width="2" stroke-linejoin="round"/></g><g data-line="$line-11"><polyline points="906,650 1002,650" fill="none" stroke="#2563eb" stroke-width="2" stroke-linejoin="round" stroke-linecap="round"/><path d="M 990 656 L 1002 650 L 990 644" fill="none" stroke="#2563eb" stroke-width="2" stroke-linejoin="round"/></g><g data-line="$line-12"><polyline points="906,736 960,736 960,662 1002,662" fill="none" stroke="#e8590c" stroke-width="2" stroke-linejoin="round" stroke-linecap="round" stroke-dasharray="10 7"/><path d="M 990 668 L 1002 662 L 990 656" fill="none" stroke="#e8590c" stroke-width="2" stroke-linejoin="round"/></g></g>
  <g id="objects"><rect x="74" y="221.75" width="220" height="60" rx="14" fill="#ffffff" stroke="#26364a" stroke-width="2"/><rect x="74" y="301.75" width="220" height="60" rx="14" fill="#ffffff" stroke="#26364a" stroke-width="2"/><rect x="74" y="381.75" width="220" height="60" rx="14" fill="#ffffff" stroke="#26364a" stroke-width="2"/><rect x="390" y="301.75" width="220" height="60" rx="14" fill="#ffffff" stroke="#26364a" stroke-width="2"/><rect x="686" y="221.75" width="220" height="60" rx="14" fill="#ffffff" stroke="#26364a" stroke-width="2"/><rect x="686" y="301.75" width="220" height="60" rx="14" fill="#ffffff" stroke="#26364a" stroke-width="2"/><rect x="686" y="381.75" width="220" height="60" rx="14" fill="#ffffff" stroke="#26364a" stroke-width="2"/><rect x="1002" y="301.75" width="220" height="60" rx="14" fill="#ffffff" stroke="#26364a" stroke-width="2"/><rect x="74" y="546" width="220" height="60" rx="14" fill="#ffffff" stroke="#26364a" stroke-width="2"/><rect x="74" y="626" width="220" height="60" rx="14" fill="#ffffff" stroke="#26364a" stroke-width="2"/><rect x="74" y="706" width="220" height="60" rx="14" fill="#ffffff" stroke="#26364a" stroke-width="2"/><rect x="390" y="626" width="220" height="60" rx="14" fill="#ffffff" stroke="#26364a" stroke-width="2"/><rect x="686" y="546" width="220" height="60" rx="14" fill="#ffffff" stroke="#26364a" stroke-width="2"/><rect x="686" y="626" width="220" height="60" rx="14" fill="#ffffff" stroke="#26364a" stroke-width="2"/><rect x="686" y="706" width="220" height="60" rx="14" fill="#ffffff" stroke="#26364a" stroke-width="2"/><rect x="1002" y="626" width="220" height="60" rx="14" fill="#ffffff" stroke="#26364a" stroke-width="2"/></g>
  <g id="ports"></g>
  <g id="text"><text x="52" y="84" text-anchor="start" fill="#172033" font-family="ui-rounded, 'Comic Sans MS', sans-serif" font-size="32" font-weight="700">One named port: policies and style cohorts</text><text x="52" y="139.2" text-anchor="start" fill="#172033" font-family="ui-rounded, 'Comic Sans MS', sans-serif" font-size="18" font-weight="450">Identity creates the join; policy and resolved paint decide its visible lanes.</text><text x="65" y="193.5" text-anchor="start" fill="#172033" font-family="ui-rounded, 'Comic Sans MS', sans-serif" font-size="15" font-weight="700">merge</text><text x="184" y="256.625" text-anchor="middle" fill="#172033" font-family="ui-rounded, 'Comic Sans MS', sans-serif" font-size="15" font-weight="450">A</text><text x="184" y="336.625" text-anchor="middle" fill="#172033" font-family="ui-rounded, 'Comic Sans MS', sans-serif" font-size="15" font-weight="450">B</text><text x="184" y="416.625" text-anchor="middle" fill="#172033" font-family="ui-rounded, 'Comic Sans MS', sans-serif" font-size="15" font-weight="450">C</text><text x="500" y="336.625" text-anchor="middle" fill="#172033" font-family="ui-rounded, 'Comic Sans MS', sans-serif" font-size="15" font-weight="450">sink</text><text x="677" y="193.5" text-anchor="start" fill="#172033" font-family="ui-rounded, 'Comic Sans MS', sans-serif" font-size="15" font-weight="700">bundle</text><text x="796" y="256.625" text-anchor="middle" fill="#172033" font-family="ui-rounded, 'Comic Sans MS', sans-serif" font-size="15" font-weight="450">A</text><text x="796" y="336.625" text-anchor="middle" fill="#172033" font-family="ui-rounded, 'Comic Sans MS', sans-serif" font-size="15" font-weight="450">B</text><text x="796" y="416.625" text-anchor="middle" fill="#172033" font-family="ui-rounded, 'Comic Sans MS', sans-serif" font-size="15" font-weight="450">C</text><text x="1112" y="336.625" text-anchor="middle" fill="#172033" font-family="ui-rounded, 'Comic Sans MS', sans-serif" font-size="15" font-weight="450">sink</text><text x="65" y="517.75" text-anchor="start" fill="#172033" font-family="ui-rounded, 'Comic Sans MS', sans-serif" font-size="15" font-weight="700">separate</text><text x="184" y="580.875" text-anchor="middle" fill="#172033" font-family="ui-rounded, 'Comic Sans MS', sans-serif" font-size="15" font-weight="450">A</text><text x="184" y="660.875" text-anchor="middle" fill="#172033" font-family="ui-rounded, 'Comic Sans MS', sans-serif" font-size="15" font-weight="450">B</text><text x="184" y="740.875" text-anchor="middle" fill="#172033" font-family="ui-rounded, 'Comic Sans MS', sans-serif" font-size="15" font-weight="450">C</text><text x="500" y="660.875" text-anchor="middle" fill="#172033" font-family="ui-rounded, 'Comic Sans MS', sans-serif" font-size="15" font-weight="450">sink</text><text x="677" y="517.75" text-anchor="start" fill="#172033" font-family="ui-rounded, 'Comic Sans MS', sans-serif" font-size="15" font-weight="700">auto · two style cohorts</text><text x="796" y="580.875" text-anchor="middle" fill="#172033" font-family="ui-rounded, 'Comic Sans MS', sans-serif" font-size="15" font-weight="450">A</text><text x="796" y="660.875" text-anchor="middle" fill="#172033" font-family="ui-rounded, 'Comic Sans MS', sans-serif" font-size="15" font-weight="450">B</text><text x="796" y="740.875" text-anchor="middle" fill="#172033" font-family="ui-rounded, 'Comic Sans MS', sans-serif" font-size="15" font-weight="450">C</text><text x="1112" y="660.875" text-anchor="middle" fill="#172033" font-family="ui-rounded, 'Comic Sans MS', sans-serif" font-size="15" font-weight="450">sink</text></g>
</svg>